<?xml version="1.0" encoding="UTF-8" standalone="no"?>
<!-- Created with Inkscape (http://www.inkscape.org/) -->

<svg
   width="512"
   height="512"
   viewBox="0 0 135.46667 135.46667"
   version="1.1"
   id="svg1"
   xml:space="preserve"
   inkscape:version="1.4 (e7c3feb1, 2024-10-09)"
   sodipodi:docname="benningimage.svg"
   xmlns:inkscape="http://www.inkscape.org/namespaces/inkscape"
   xmlns:sodipodi="http://sodipodi.sourceforge.net/DTD/sodipodi-0.dtd"
   xmlns:xlink="http://www.w3.org/1999/xlink"
   xmlns="http://www.w3.org/2000/svg"
   xmlns:svg="http://www.w3.org/2000/svg"><sodipodi:namedview
     id="namedview1"
     pagecolor="#ffffff"
     bordercolor="#000000"
     borderopacity="0.25"
     inkscape:showpageshadow="2"
     inkscape:pageopacity="0.0"
     inkscape:pagecheckerboard="0"
     inkscape:deskcolor="#d1d1d1"
     inkscape:document-units="mm"
     inkscape:zoom="1.2704538"
     inkscape:cx="132.23621"
     inkscape:cy="257.38833"
     inkscape:window-width="1728"
     inkscape:window-height="1381"
     inkscape:window-x="3448"
     inkscape:window-y="32"
     inkscape:window-maximized="0"
     inkscape:current-layer="svg1" /><defs
     id="defs1"><linearGradient
       id="linearGradient10"
       inkscape:collect="always"><stop
         style="stop-color:#dddddd;stop-opacity:1;"
         offset="0"
         id="stop10" /><stop
         style="stop-color:#dddddd;stop-opacity:0.87037039;"
         offset="1"
         id="stop11" /></linearGradient><inkscape:path-effect
       effect="bspline"
       id="path-effect9"
       is_visible="true"
       lpeversion="1.3"
       weight="33.333333"
       steps="2"
       helper_size="0"
       apply_no_weight="true"
       apply_with_weight="true"
       only_selected="false"
       uniform="false" /><inkscape:path-effect
       effect="bspline"
       id="path-effect7"
       is_visible="true"
       lpeversion="1.3"
       weight="33.333333"
       steps="2"
       helper_size="0"
       apply_no_weight="true"
       apply_with_weight="true"
       only_selected="false"
       uniform="false" /><inkscape:path-effect
       effect="bspline"
       id="path-effect6"
       is_visible="true"
       lpeversion="1.3"
       weight="33.333333"
       steps="2"
       helper_size="0"
       apply_no_weight="true"
       apply_with_weight="true"
       only_selected="false"
       uniform="false" /><inkscape:path-effect
       effect="bspline"
       id="path-effect5"
       is_visible="true"
       lpeversion="1.3"
       weight="33.333333"
       steps="2"
       helper_size="0"
       apply_no_weight="true"
       apply_with_weight="true"
       only_selected="false"
       uniform="false" /><inkscape:path-effect
       effect="bspline"
       id="path-effect4"
       is_visible="true"
       lpeversion="1.3"
       weight="33.333333"
       steps="2"
       helper_size="0"
       apply_no_weight="true"
       apply_with_weight="true"
       only_selected="false"
       uniform="false" /><inkscape:path-effect
       effect="bspline"
       id="path-effect2"
       is_visible="true"
       lpeversion="1.3"
       weight="33.333333"
       steps="2"
       helper_size="0"
       apply_no_weight="true"
       apply_with_weight="true"
       only_selected="false"
       uniform="false" /><inkscape:path-effect
       effect="bspline"
       id="path-effect1"
       is_visible="true"
       lpeversion="1.3"
       weight="33.333333"
       steps="2"
       helper_size="0"
       apply_no_weight="true"
       apply_with_weight="true"
       only_selected="false"
       uniform="false" /><inkscape:path-effect
       effect="bspline"
       id="path-effect9-5"
       is_visible="true"
       lpeversion="1.3"
       weight="33.333333"
       steps="2"
       helper_size="0"
       apply_no_weight="true"
       apply_with_weight="true"
       only_selected="false"
       uniform="false" /><inkscape:path-effect
       effect="bspline"
       id="path-effect9-52"
       is_visible="true"
       lpeversion="1.3"
       weight="33.333333"
       steps="2"
       helper_size="0"
       apply_no_weight="true"
       apply_with_weight="true"
       only_selected="false"
       uniform="false" /><inkscape:path-effect
       effect="bspline"
       id="path-effect9-8"
       is_visible="true"
       lpeversion="1.3"
       weight="33.333333"
       steps="2"
       helper_size="0"
       apply_no_weight="true"
       apply_with_weight="true"
       only_selected="false"
       uniform="false" /><radialGradient
       inkscape:collect="always"
       xlink:href="#linearGradient10"
       id="radialGradient11"
       cx="63.627106"
       cy="40.542291"
       fx="63.627106"
       fy="40.542291"
       r="6.5408859"
       gradientTransform="matrix(1,0,0,0.54326139,0,18.51723)"
       gradientUnits="userSpaceOnUse" /></defs><g
     inkscape:label="Ebene 1"
     inkscape:groupmode="layer"
     id="layer1"><path
       style="fill:#bebebe;stroke-width:0.264583;fill-opacity:1"
       d="m 21.334107,9.6845617 c 0.112285,-0.3368542 0.336854,-1.0105628 0.778982,-1.5369014 0.442128,-0.5263387 1.101788,-0.9052923 1.964988,-1.1509164 0.8632,-0.2456241 1.929884,-0.3579066 3.621196,-0.4070311 1.691313,-0.049125 4.007139,-0.035089 11.474203,-0.014035 7.467064,0.021054 20.084813,0.049125 32.274847,0.00702 12.190034,-0.042108 23.951628,-0.1543903 29.972907,-0.2035147 6.02127,-0.049124 6.30198,-0.035089 6.9757,0.091233 0.67371,0.1263223 1.7404,0.3649244 2.28778,0.9895187 0.54739,0.6245943 0.57545,1.635138 0.58949,2.9685355 0.014,1.333397 0.014,2.989565 0.0491,21.874822 0.0351,18.885257 0.10526,54.998125 0.1193,73.146151 0.014,18.14803 -0.0281,18.33049 -0.28774,18.61822 -0.25966,0.28774 -0.73686,0.68072 -1.43163,1.34742 -0.69477,0.66671 -1.60707,1.60707 -2.23165,2.15446 -0.62459,0.54739 -0.96144,0.70178 -1.36146,0.73687 -0.40002,0.0351 -0.86318,-0.0491 -1.20004,-0.15439 -0.33686,-0.10527 -0.54739,-0.23159 -1.41059,-0.29475 -0.86321,-0.0632 -2.37902,-0.0632 -3.17203,-0.0842 -0.79301,-0.0211 -0.863183,-0.0632 -13.004219,-0.21054 -12.141036,-0.14738 -36.351959,-0.40001 -48.534861,-0.54036 -12.182903,-0.14036 -12.337296,-0.16843 -12.554845,-0.11228 -0.217548,0.0562 -0.498258,0.1965 -0.88424,0.20352 -0.385981,0.007 -0.877219,-0.1193 -1.157931,-0.25264 -0.280713,-0.13334 -0.350888,-0.27369 -0.54739,-0.42107 -0.196502,-0.14737 -0.519315,-0.30176 -0.912316,-0.70178 -0.393002,-0.40002 -0.85617,-1.04565 -1.10881,-2.06324 -0.25264,-1.0176 -0.294745,-2.40709 -0.350888,-6.4073 -0.05614,-4.00022 -0.12632,-10.61085 -0.189481,-17.965583 -0.06316,-7.354733 -0.119302,-15.45311 -0.154391,-25.165857 -0.03509,-9.712747 -0.04913,-21.039247 -1e-6,-31.994136 0.04913,-10.954889 0.161407,-21.537517 0.21755,-26.828937 0.05614,-5.29142 0.05617,-5.291441 0.16845,-5.6282953 z"
       id="path2"
       inkscape:path-effect="#path-effect2"
       inkscape:original-d="m 21.221822,10.021416 c 0.22457,-0.6737084 0.449139,-1.3474172 0.673709,-2.0211257 0.659686,-0.3789688 1.319346,-0.7579222 1.979019,-1.1368834 1.066727,-0.112287 2.133411,-0.2245696 3.200117,-0.3368545 2.315919,0.014036 4.631745,0.028071 6.947619,0.042107 12.618254,0.028072 25.236003,0.056142 37.854006,0.084214 11.762065,-0.1122871 23.523659,-0.2245696 35.285488,-0.3368543 0.28072,0.014036 0.56143,0.028071 0.84214,0.042107 1.06672,0.23861 2.13341,0.4772104 3.20011,0.7158156 0.0281,1.0105832 0.0562,2.0211259 0.0842,3.0316893 0,1.656233 0,3.312401 0,4.968601 0.0702,36.114314 0.14035,72.227182 0.21053,108.340768 -0.0421,0.18247 -0.0842,0.36493 -0.12632,0.54739 -0.47722,0.39301 -0.95442,0.78599 -1.43163,1.17899 -0.91233,0.94041 -1.82463,1.88077 -2.73694,2.82116 -0.33686,0.15439 -0.67371,0.30878 -1.01056,0.46317 -0.46319,-0.0842 -0.92635,-0.16842 -1.38953,-0.25264 -0.21054,-0.12632 -0.42107,-0.25264 -0.6316,-0.37896 -1.51588,0 -3.03169,0 -4.547533,0 -0.07018,-0.0421 -0.140356,-0.0842 -0.210534,-0.12632 -24.211888,-0.25265 -48.422811,-0.50528 -72.634215,-0.75792 -0.154395,-0.0281 -0.308782,-0.0562 -0.463174,-0.0842 -0.280717,0.14036 -0.561424,0.28072 -0.842136,0.42107 -0.491255,-0.12632 -0.982492,-0.25264 -1.473737,-0.37896 -0.07018,-0.14036 -0.140356,-0.28071 -0.210534,-0.42107 -0.322826,-0.15439 -0.645638,-0.30878 -0.968457,-0.46317 -0.463183,-0.64565 -0.926349,-1.29128 -1.389524,-1.93691 -0.04211,-1.38956 -0.08421,-2.77905 -0.12632,-4.16858 -0.07018,-6.6109 -0.140356,-13.22153 -0.210534,-19.8323 -0.05614,-8.098696 -0.112285,-16.197073 -0.168427,-24.295612 -0.01404,-11.326955 -0.02807,-22.653455 -0.04211,-33.98018 0.112287,-10.583053 0.22457,-21.165681 0.336854,-31.748521 z" /><rect
       style="fill:#e00000;fill-opacity:1;stroke:#e00000;stroke-width:0.964999;stroke-dasharray:none;stroke-opacity:1"
       id="rect6"
       width="65.956978"
       height="31.99539"
       x="30.744173"
       y="31.280409" /><path
       style="fill:#a2a2a2;fill-opacity:1;stroke-width:0.264583"
       d="m 106.13197,127.0889 c -0.0677,-30.267472 -0.13544,-60.534339 -0.11784,-79.966166 0.0176,-19.431826 0.12049,-28.026887 0.32599,-33.022065 0.2055,-4.9951771 0.51358,-6.3899002 0.80798,-7.0802571 0.2944,-0.6903568 0.57511,-0.6763213 1.24883,-0.5499991 0.67371,0.1263223 1.7404,0.3649244 2.28778,0.9895187 0.54739,0.6245943 0.57545,1.635138 0.58949,2.9685355 0.014,1.333397 0.014,2.989565 0.0491,21.874822 0.0351,18.885257 0.10526,54.998125 0.1193,73.146151 0.014,18.14803 -0.0281,18.33049 -0.28774,18.61822 -0.25966,0.28774 -0.73686,0.68072 -1.43163,1.34742 -0.69477,0.66671 -1.60707,1.60707 -2.23165,2.15446 -0.62459,0.54739 -0.96144,0.70178 -1.36146,0.73687 -0.40002,0.0351 -0.86318,-0.0491 -1.17384,-0.18434 -0.31066,-0.13521 -0.46879,-0.32141 -0.24743,-0.50211 0.22136,-0.18069 0.82224,-0.35588 1.4231,-0.53106 z"
       id="path3"
       inkscape:path-effect="#path-effect4"
       inkscape:original-d="m 106.13197,127.0889 c 0,0 -0.13544,-60.534339 -0.20316,-90.802416 0.10291,-8.595576 0.20581,-17.190637 0.30872,-25.786214 0.30809,-1.394778 0.61617,-2.7895005 0.92425,-4.1842509 0.28072,0.014036 0.56143,0.028071 0.84214,0.042107 1.06672,0.23861 2.13341,0.4772104 3.20011,0.7158156 0.0281,1.0105832 0.0562,2.0211259 0.0842,3.0316893 0,1.656233 0,3.312401 0,4.968601 0.0702,36.114314 0.14035,72.227182 0.21053,108.340768 -0.0421,0.18247 -0.0842,0.36493 -0.12632,0.54739 -0.47722,0.39301 -0.95442,0.78599 -1.43163,1.17899 -0.91233,0.94041 -1.82463,1.88077 -2.73694,2.82116 -0.33686,0.15439 -0.67371,0.30878 -1.01056,0.46317 -0.46319,-0.0842 -0.92635,-0.16842 -1.38953,-0.25264 -0.15814,-0.18621 -0.31627,-0.37241 -0.4744,-0.55862 0.60085,-0.17518 1.80259,-0.52555 1.80259,-0.52555 z"
       sodipodi:nodetypes="cccccccccccccccc" /><path
       style="fill:#bebebe;fill-opacity:1;stroke:#e00000;stroke-width:0.965;stroke-dasharray:none;stroke-opacity:1"
       d="m 27.52676,8.401024 c 3.038668,19.95988 6.077336,39.919761 6.136918,59.373194 0.05958,19.453432 -2.859924,38.400422 -5.779429,57.347412"
       id="path4"
       inkscape:path-effect="#path-effect5"
       inkscape:original-d="m 27.52676,8.401024 c 3.038668,19.95988 6.077336,39.919761 9.116004,59.879639 -2.919505,18.946987 -5.83901,37.893977 -8.758515,56.840967"
       sodipodi:nodetypes="ccc" /><path
       style="fill:#bebebe;fill-opacity:1;stroke:#e00000;stroke-width:0.964999;stroke-dasharray:none;stroke-opacity:1"
       d="M 99.203583,125.30038 C 95.509515,103.97012 91.815448,82.639862 91.755901,63.245834 91.696355,43.851806 95.271187,26.394707 98.846091,8.9372598"
       id="path5"
       inkscape:path-effect="#path-effect6"
       inkscape:original-d="M 99.203583,125.30038 C 95.509515,103.97012 91.815448,82.639862 88.12138,61.309601 91.696356,43.851806 95.271187,26.394707 98.846091,8.9372598" /><path
       style="fill:#bebebe;fill-opacity:1;stroke:#bebebe;stroke-width:0.964999;stroke-dasharray:none;stroke-opacity:1"
       d="m 38.929987,24.65159 c 0.162716,15.010621 0.325432,30.021243 0.488148,45.031864"
       id="path6"
       inkscape:path-effect="#path-effect7"
       inkscape:original-d="m 38.929987,24.65159 c 0.162716,15.010621 0.325432,30.021243 0.488148,45.031864" /><path
       style="fill:#bebebe;fill-opacity:1;stroke:#bebebe;stroke-width:0.964999;stroke-dasharray:none;stroke-opacity:1"
       d="m 38.929987,24.65159 c 0.162716,15.010621 0.325432,30.021243 0.488148,45.031864"
       id="path7"
       inkscape:path-effect="#path-effect9"
       inkscape:original-d="m 38.929987,24.65159 c 0.162716,15.010621 0.325432,30.021243 0.488148,45.031864" /><path
       style="fill:#bebebe;fill-opacity:1;stroke:#bebebe;stroke-width:0.964999;stroke-dasharray:none;stroke-opacity:1"
       d="m 38.929987,24.65159 c 0.162716,15.010621 0.325432,30.021243 0.488148,45.031864"
       id="path7-2"
       inkscape:path-effect="#path-effect9-5"
       inkscape:original-d="m 38.929987,24.65159 c 0.162716,15.010621 0.325432,30.021243 0.488148,45.031864"
       transform="translate(45.658079,0.64995672)" /><path
       style="fill:#bebebe;fill-opacity:1;stroke:#bebebe;stroke-width:0.964999;stroke-dasharray:none;stroke-opacity:1"
       d="m 38.929987,24.65159 c 0.162716,15.010621 0.325432,30.021243 0.488148,45.031864"
       id="path7-1"
       inkscape:path-effect="#path-effect9-52"
       inkscape:original-d="m 38.929987,24.65159 c 0.162716,15.010621 0.325432,30.021243 0.488148,45.031864"
       transform="translate(15.730343,1.7169593)" /><path
       style="fill:#bebebe;fill-opacity:1;stroke:#bebebe;stroke-width:0.964999;stroke-dasharray:none;stroke-opacity:1"
       d="m 38.929987,24.65159 c 0.162716,15.010621 0.325432,30.021243 0.488148,45.031864"
       id="path7-6"
       inkscape:path-effect="#path-effect9-8"
       inkscape:original-d="m 38.929987,24.65159 c 0.162716,15.010621 0.325432,30.021243 0.488148,45.031864"
       transform="translate(33.529205,2.8755082)" /><rect
       style="fill:url(#radialGradient11);fill-opacity:1;stroke:none;stroke-width:0.821879;stroke-dasharray:none;stroke-opacity:1"
       id="rect9"
       width="13.081772"
       height="7.1068215"
       x="57.08622"
       y="36.98888" /></g></svg>
